<?xml version="1.0" encoding="iso-8859-1"?>
<!-- Generator: Adobe Illustrator 19.0.0, SVG Export Plug-In . SVG Version: 6.00 Build 0)  -->
<svg version="1.1" id="Layer_1" xmlns="http://www.w3.org/2000/svg" xmlns:xlink="http://www.w3.org/1999/xlink" x="0px" y="0px"
	 viewBox="0 0 512 512" style="enable-background:new 0 0 512 512;" xml:space="preserve">
<g>
	<polygon style="fill:#F2CD83;" points="122.435,278.261 55.652,278.261 11.13,278.261 11.13,322.783 191.56,322.783 
		191.56,278.261 	"/>
	<rect x="165.788" y="144.696" style="fill:#F2CD83;" width="180.424" height="44.522"/>
	<polygon style="fill:#F2CD83;" points="446.74,11.13 320.44,11.13 320.44,55.652 446.74,55.652 500.87,55.652 500.87,11.13 	"/>
</g>
<polygon style="fill:#E2A271;" points="346.216,55.652 346.216,189.217 191.56,189.217 191.56,322.783 33.391,322.783 
	33.391,500.87 500.87,500.87 500.87,411.826 500.87,322.783 500.87,256 500.87,189.217 500.87,55.652 "/>
<path d="M89.043,289.391c2.927,0,5.799-1.191,7.868-3.262c2.071-2.069,3.262-4.941,3.262-7.868s-1.191-5.799-3.262-7.869
	c-2.069-2.071-4.941-3.261-7.868-3.261s-5.799,1.19-7.869,3.261c-2.07,2.071-3.261,4.942-3.261,7.869s1.19,5.799,3.261,7.868
	C83.245,288.2,86.116,289.391,89.043,289.391z"/>
<path d="M500.87,0H320.44c-6.146,0-11.13,4.984-11.13,11.13v44.522c0,6.146,4.984,11.13,11.13,11.13h14.645v66.783H165.784
	c-6.146,0-11.13,4.984-11.13,11.13v44.522c0,6.146,4.984,11.13,11.13,11.13h14.645v66.783h-57.995c-6.146,0-11.13,4.984-11.13,11.13
	c0,6.146,4.984,11.13,11.13,11.13h57.995v22.261H33.391h-11.13v-22.261h33.391c6.146,0,11.13-4.984,11.13-11.13
	c0-6.146-4.984-11.13-11.13-11.13H11.13c-6.146,0-11.13,4.984-11.13,11.13v44.522c0,6.146,4.984,11.13,11.13,11.13h11.13V500.87
	c0,6.146,4.984,11.13,11.13,11.13H500.87c6.146,0,11.13-4.984,11.13-11.13V55.652V11.13C512,4.984,507.016,0,500.87,0z
	 M331.57,22.261h158.169v22.261H346.216H331.57L331.57,22.261L331.57,22.261z M176.915,155.826h158.169v22.261H191.56h-14.645
	L176.915,155.826L176.915,155.826z M489.739,489.739H44.522V333.913H191.56c6.146,0,11.13-4.984,11.13-11.13v-44.522v-77.913
	h143.524c6.146,0,11.13-4.984,11.13-11.13v-44.522v-33.391h32.22c6.146,0,11.13-4.984,11.13-11.13c0-6.146-4.984-11.13-11.13-11.13
	h-32.219V66.783h132.393V489.739z"/>
<path d="M422.957,111.304c2.927,0,5.799-1.191,7.868-3.262c2.071-2.069,3.262-4.941,3.262-7.868c0-2.927-1.191-5.799-3.262-7.869
	c-2.069-2.071-4.941-3.261-7.868-3.261s-5.799,1.19-7.869,3.261c-2.07,2.071-3.261,4.942-3.261,7.869
	c0,2.927,1.19,5.799,3.261,7.868C417.158,110.113,420.029,111.304,422.957,111.304z"/>
<g>
</g>
<g>
</g>
<g>
</g>
<g>
</g>
<g>
</g>
<g>
</g>
<g>
</g>
<g>
</g>
<g>
</g>
<g>
</g>
<g>
</g>
<g>
</g>
<g>
</g>
<g>
</g>
<g>
</g>
</svg>
